<svg width="195" height="81" viewBox="0 0 195 81" fill="none" xmlns="http://www.w3.org/2000/svg">
<path d="M31.56 27.42C30.96 26.58 30.33 26.31 29.67 26.61C29.01 26.85 28.32 27.45 27.6 28.41C26.88 29.31 26.16 30.48 25.44 31.92C24.78 33.3 24.18 34.71 23.64 36.15C23.1 37.53 22.62 38.85 22.2 40.11C21.84 41.31 21.6 42.21 21.48 42.81C21.9 42.87 22.41 42.93 23.01 42.99C23.67 43.05 24.33 43.11 24.99 43.17C25.71 43.17 26.34 43.2 26.88 43.26C27.48 43.32 27.93 43.41 28.23 43.53C30.81 44.37 32.31 45.99 32.73 48.39C33.09 49.89 32.91 51.15 32.19 52.17C31.53 53.13 30.42 53.61 28.86 53.61C28.38 53.67 27.72 53.67 26.88 53.61C26.1 53.55 25.26 53.49 24.36 53.43C23.52 53.31 22.68 53.22 21.84 53.16C21 53.04 20.28 52.95 19.68 52.89C19.38 53.61 19.11 54.84 18.87 56.58C18.63 58.32 18.42 60.27 18.24 62.43C18.06 64.59 17.91 66.84 17.79 69.18C17.67 71.52 17.58 73.65 17.52 75.57C17.34 77.49 16.92 78.78 16.26 79.44C15.66 80.16 14.97 80.4 14.19 80.16C13.47 79.98 12.69 79.41 11.85 78.45C11.07 77.55 10.41 76.41 9.87 75.03C9.15 72.87 8.61 70.86 8.25 69C7.95 67.14 7.74 65.28 7.62 63.42C7.56 61.56 7.53 59.67 7.53 57.75C7.59 55.77 7.59 53.64 7.53 51.36C6.87 51.12 6.18 50.94 5.46 50.82C4.74 50.64 4.05 50.43 3.39 50.19C2.49 49.71 1.86 49.02 1.5 48.12C1.08 47.22 1.2 46.44 1.86 45.78C2.94 45.12 3.99 44.67 5.01 44.43C6.03 44.13 7.14 43.86 8.34 43.62C8.7 41.94 9.15 40.02 9.69 37.86C10.23 35.64 10.89 33.39 11.67 31.11C12.45 28.83 13.35 26.61 14.37 24.45C15.45 22.29 16.68 20.4 18.06 18.78C19.5 17.16 21.09 15.93 22.83 15.09C24.57 14.19 26.55 13.89 28.77 14.19C31.53 14.67 33.93 16.26 35.97 18.96C36.93 19.98 37.5 21.3 37.68 22.92C37.92 24.48 37.8 25.92 37.32 27.24C36.9 28.5 36.18 29.43 35.16 30.03C34.14 30.57 32.88 30.36 31.38 29.4C31.02 29.1 30.81 28.83 30.75 28.59C30.75 28.35 30.81 28.17 30.93 28.05C31.05 27.87 31.17 27.72 31.29 27.6C31.47 27.48 31.56 27.42 31.56 27.42ZM69.3459 33.63C69.3459 36.09 69.1359 38.7 68.7159 41.46C68.3559 44.22 67.6959 46.89 66.7359 49.47C65.7759 51.99 64.4859 54.3 62.8659 56.4C61.3059 58.44 59.3559 59.97 57.0159 60.99C54.3759 61.89 51.8559 62.22 49.4559 61.98C47.1159 61.74 45.0159 61.02 43.1559 59.82C41.2959 58.62 39.7959 57 38.6559 54.96C37.5759 52.92 36.9759 50.58 36.8559 47.94C36.5559 41.76 37.2759 36.48 39.0159 32.1C40.8159 27.72 43.4859 24.21 47.0259 21.57C49.3659 19.95 51.8259 19.02 54.4059 18.78C56.9859 18.54 59.3559 18.96 61.5159 20.04C63.7359 21.12 65.5659 22.83 67.0059 25.17C68.5059 27.45 69.2859 30.27 69.3459 33.63ZM55.2159 30.48C53.9559 31.02 52.8759 31.98 51.9759 33.36C51.1359 34.74 50.4459 36.24 49.9059 37.86C49.3659 39.48 48.9759 41.13 48.7359 42.81C48.4959 44.43 48.4059 45.78 48.4659 46.86C48.4659 48.18 48.7059 49.17 49.1859 49.83C49.6659 50.49 50.2059 50.88 50.8059 51C51.4659 51.12 52.1259 51.03 52.7859 50.73C53.4459 50.37 53.9559 49.89 54.3159 49.29C55.6359 47.37 56.5959 45.45 57.1959 43.53C57.8559 41.55 58.3659 39.39 58.7259 37.05C58.7259 36.75 58.7259 36.15 58.7259 35.25C58.7859 34.35 58.6959 33.48 58.4559 32.64C58.2759 31.8 57.9159 31.14 57.3759 30.66C56.8959 30.12 56.1759 30.06 55.2159 30.48ZM104.151 33.63C104.151 36.09 103.941 38.7 103.521 41.46C103.161 44.22 102.501 46.89 101.541 49.47C100.581 51.99 99.2906 54.3 97.6706 56.4C96.1106 58.44 94.1606 59.97 91.8206 60.99C89.1806 61.89 86.6606 62.22 84.2606 61.98C81.9206 61.74 79.8206 61.02 77.9606 59.82C76.1006 58.62 74.6006 57 73.4606 54.96C72.3806 52.92 71.7806 50.58 71.6606 47.94C71.3606 41.76 72.0806 36.48 73.8206 32.1C75.6206 27.72 78.2906 24.21 81.8306 21.57C84.1706 19.95 86.6306 19.02 89.2106 18.78C91.7906 18.54 94.1606 18.96 96.3206 20.04C98.5406 21.12 100.371 22.83 101.811 25.17C103.311 27.45 104.091 30.27 104.151 33.63ZM90.0206 30.48C88.7606 31.02 87.6806 31.98 86.7806 33.36C85.9406 34.74 85.2506 36.24 84.7106 37.86C84.1706 39.48 83.7806 41.13 83.5406 42.81C83.3006 44.43 83.2106 45.78 83.2706 46.86C83.2706 48.18 83.5106 49.17 83.9906 49.83C84.4706 50.49 85.0106 50.88 85.6106 51C86.2706 51.12 86.9306 51.03 87.5906 50.73C88.2506 50.37 88.7606 49.89 89.1206 49.29C90.4406 47.37 91.4006 45.45 92.0006 43.53C92.6606 41.55 93.1706 39.39 93.5306 37.05C93.5306 36.75 93.5306 36.15 93.5306 35.25C93.5906 34.35 93.5006 33.48 93.2606 32.64C93.0806 31.8 92.7206 31.14 92.1806 30.66C91.7006 30.12 90.9806 30.06 90.0206 30.48ZM127.714 52.17C126.994 53.73 126.034 55.23 124.834 56.67C123.634 58.05 122.104 58.98 120.244 59.46C118.564 60.18 116.974 60.3 115.474 59.82C114.034 59.34 112.744 58.53 111.604 57.39C110.464 56.25 109.504 54.93 108.724 53.43C107.944 51.87 107.404 50.43 107.104 49.11C106.744 46.71 106.654 44.28 106.834 41.82C107.074 39.36 107.554 37.02 108.274 34.8C109.054 32.52 110.074 30.36 111.334 28.32C112.654 26.28 114.214 24.45 116.014 22.83C118.414 20.73 120.934 19.35 123.574 18.69C126.214 18.03 128.914 18.39 131.674 19.77C132.274 18.15 132.814 16.41 133.294 14.55C133.774 12.63 134.284 10.83 134.824 9.15C135.364 7.41 135.994 5.88 136.714 4.55999C137.434 3.24 138.334 2.31 139.414 1.77C140.434 0.989998 141.724 0.749997 143.284 1.05C144.604 1.41 145.624 2.01 146.344 2.85C147.064 3.63 147.514 4.53 147.694 5.55C147.934 6.57 147.934 7.65 147.694 8.79C147.514 9.93 147.154 10.98 146.614 11.94C143.914 18.84 141.844 25.92 140.404 33.18C139.024 40.38 138.184 48.15 137.884 56.49C137.884 56.79 137.854 57.09 137.794 57.39C137.734 57.63 137.704 57.9 137.704 58.2C137.404 58.92 137.014 59.52 136.534 60C136.114 60.54 135.454 60.78 134.554 60.72C133.354 60.66 132.334 60.36 131.494 59.82C130.714 59.22 130.054 58.53 129.514 57.75C128.974 56.91 128.554 56.01 128.254 55.05C128.014 54.03 127.834 53.07 127.714 52.17ZM129.694 29.4C128.074 29.58 126.484 30.15 124.924 31.11C123.364 32.07 121.984 33.27 120.784 34.71C119.584 36.15 118.624 37.74 117.904 39.48C117.244 41.16 116.974 42.81 117.094 44.43C117.094 45.21 117.244 45.87 117.544 46.41C117.844 46.95 118.234 47.31 118.714 47.49C119.254 47.61 119.854 47.52 120.514 47.22C121.174 46.86 121.864 46.23 122.584 45.33C123.124 44.79 123.724 44.16 124.384 43.44C125.044 42.66 125.674 41.67 126.274 40.47C126.934 39.21 127.564 37.71 128.164 35.97C128.764 34.17 129.274 31.98 129.694 29.4ZM144.813 45.33C144.813 41.85 144.933 38.61 145.173 35.61C145.413 32.55 146.163 29.61 147.423 26.79C148.143 25.17 149.073 24 150.213 23.28C151.353 22.56 152.493 22.23 153.633 22.29C154.773 22.35 155.853 22.8 156.873 23.64C157.893 24.48 158.673 25.68 159.213 27.24C159.633 28.62 159.813 30.06 159.753 31.56C159.693 33 159.513 34.35 159.213 35.61C158.373 39.33 157.533 43.29 156.693 47.49C155.853 51.63 155.133 55.59 154.533 59.37C154.113 60.39 153.393 60.9 152.373 60.9C151.353 60.9 150.333 60.36 149.313 59.28C148.473 58.44 147.783 57.45 147.243 56.31C146.703 55.17 146.253 53.97 145.893 52.71C145.593 51.45 145.353 50.19 145.173 48.93C145.053 47.67 144.933 46.47 144.813 45.33ZM162.723 13.2C163.083 14.04 163.233 14.91 163.173 15.81C163.173 16.71 162.993 17.52 162.633 18.24C162.333 18.96 161.883 19.59 161.283 20.13C160.743 20.61 160.083 20.88 159.303 20.94C158.463 21 157.623 20.91 156.783 20.67C155.943 20.37 155.133 19.98 154.353 19.5C153.633 19.02 152.973 18.45 152.373 17.79C151.773 17.07 151.323 16.32 151.023 15.54C150.723 14.76 150.603 13.95 150.663 13.11C150.783 12.21 151.053 11.4 151.473 10.68C151.893 9.96 152.433 9.36 153.093 8.88C153.753 8.4 154.503 8.16 155.343 8.16C156.903 8.1 158.403 8.55 159.843 9.51C161.283 10.47 162.243 11.7 162.723 13.2ZM174.164 45.15C174.044 45.99 174.104 46.8 174.344 47.58C174.584 48.36 174.944 49.02 175.424 49.56C175.904 50.1 176.474 50.49 177.134 50.73C177.854 50.91 178.634 50.85 179.474 50.55C181.274 50.01 182.864 49.35 184.244 48.57C185.684 47.73 187.124 46.89 188.564 46.05C189.524 45.39 190.394 45.03 191.174 44.97C192.014 44.85 192.644 44.97 193.064 45.33C193.484 45.69 193.694 46.23 193.694 46.95C193.694 47.67 193.364 48.51 192.704 49.47C191.084 52.23 189.074 54.54 186.674 56.4C184.334 58.26 181.634 59.61 178.574 60.45C175.574 61.23 172.694 60.96 169.934 59.64C167.234 58.32 165.164 56.25 163.724 53.43C162.464 50.37 161.804 47.28 161.744 44.16C161.744 40.98 162.224 37.92 163.184 34.98C164.204 32.04 165.674 29.34 167.594 26.88C169.514 24.42 171.794 22.35 174.434 20.67C175.994 19.71 177.794 19.05 179.834 18.69C181.874 18.33 183.824 18.33 185.684 18.69C188.324 19.17 190.364 20.37 191.804 22.29C193.304 24.15 193.994 26.43 193.874 29.13C193.814 31.41 193.304 33.48 192.344 35.34C191.444 37.14 190.214 38.73 188.654 40.11C186.554 41.85 184.394 43.26 182.174 44.34C179.954 45.36 177.284 45.63 174.164 45.15ZM184.334 29.31C183.494 28.77 182.564 28.71 181.544 29.13C180.584 29.49 179.654 30.12 178.754 31.02C177.854 31.86 177.074 32.88 176.414 34.08C175.754 35.28 175.364 36.45 175.244 37.59C176.624 37.59 177.944 37.32 179.204 36.78C180.464 36.24 181.514 35.58 182.354 34.8C183.254 33.96 183.884 33.06 184.244 32.1C184.664 31.08 184.694 30.15 184.334 29.31Z" fill="#FFC421"/>
<path d="M31.56 27.42C30.96 26.58 30.33 26.31 29.67 26.61C29.01 26.85 28.32 27.45 27.6 28.41C26.88 29.31 26.16 30.48 25.44 31.92C24.78 33.3 24.18 34.71 23.64 36.15C23.1 37.53 22.62 38.85 22.2 40.11C21.84 41.31 21.6 42.21 21.48 42.81C21.9 42.87 22.41 42.93 23.01 42.99C23.67 43.05 24.33 43.11 24.99 43.17C25.71 43.17 26.34 43.2 26.88 43.26C27.48 43.32 27.93 43.41 28.23 43.53C30.81 44.37 32.31 45.99 32.73 48.39C33.09 49.89 32.91 51.15 32.19 52.17C31.53 53.13 30.42 53.61 28.86 53.61C28.38 53.67 27.72 53.67 26.88 53.61C26.1 53.55 25.26 53.49 24.36 53.43C23.52 53.31 22.68 53.22 21.84 53.16C21 53.04 20.28 52.95 19.68 52.89C19.38 53.61 19.11 54.84 18.87 56.58C18.63 58.32 18.42 60.27 18.24 62.43C18.06 64.59 17.91 66.84 17.79 69.18C17.67 71.52 17.58 73.65 17.52 75.57C17.34 77.49 16.92 78.78 16.26 79.44C15.66 80.16 14.97 80.4 14.19 80.16C13.47 79.98 12.69 79.41 11.85 78.45C11.07 77.55 10.41 76.41 9.87 75.03C9.15 72.87 8.61 70.86 8.25 69C7.95 67.14 7.74 65.28 7.62 63.42C7.56 61.56 7.53 59.67 7.53 57.75C7.59 55.77 7.59 53.64 7.53 51.36C6.87 51.12 6.18 50.94 5.46 50.82C4.74 50.64 4.05 50.43 3.39 50.19C2.49 49.71 1.86 49.02 1.5 48.12C1.08 47.22 1.2 46.44 1.86 45.78C2.94 45.12 3.99 44.67 5.01 44.43C6.03 44.13 7.14 43.86 8.34 43.62C8.7 41.94 9.15 40.02 9.69 37.86C10.23 35.64 10.89 33.39 11.67 31.11C12.45 28.83 13.35 26.61 14.37 24.45C15.45 22.29 16.68 20.4 18.06 18.78C19.5 17.16 21.09 15.93 22.83 15.09C24.57 14.19 26.55 13.89 28.77 14.19C31.53 14.67 33.93 16.26 35.97 18.96C36.93 19.98 37.5 21.3 37.68 22.92C37.92 24.48 37.8 25.92 37.32 27.24C36.9 28.5 36.18 29.43 35.16 30.03C34.14 30.57 32.88 30.36 31.38 29.4C31.02 29.1 30.81 28.83 30.75 28.59C30.75 28.35 30.81 28.17 30.93 28.05C31.05 27.87 31.17 27.72 31.29 27.6C31.47 27.48 31.56 27.42 31.56 27.42ZM69.3459 33.63C69.3459 36.09 69.1359 38.7 68.7159 41.46C68.3559 44.22 67.6959 46.89 66.7359 49.47C65.7759 51.99 64.4859 54.3 62.8659 56.4C61.3059 58.44 59.3559 59.97 57.0159 60.99C54.3759 61.89 51.8559 62.22 49.4559 61.98C47.1159 61.74 45.0159 61.02 43.1559 59.82C41.2959 58.62 39.7959 57 38.6559 54.96C37.5759 52.92 36.9759 50.58 36.8559 47.94C36.5559 41.76 37.2759 36.48 39.0159 32.1C40.8159 27.72 43.4859 24.21 47.0259 21.57C49.3659 19.95 51.8259 19.02 54.4059 18.78C56.9859 18.54 59.3559 18.96 61.5159 20.04C63.7359 21.12 65.5659 22.83 67.0059 25.17C68.5059 27.45 69.2859 30.27 69.3459 33.63ZM55.2159 30.48C53.9559 31.02 52.8759 31.98 51.9759 33.36C51.1359 34.74 50.4459 36.24 49.9059 37.86C49.3659 39.48 48.9759 41.13 48.7359 42.81C48.4959 44.43 48.4059 45.78 48.4659 46.86C48.4659 48.18 48.7059 49.17 49.1859 49.83C49.6659 50.49 50.2059 50.88 50.8059 51C51.4659 51.12 52.1259 51.03 52.7859 50.73C53.4459 50.37 53.9559 49.89 54.3159 49.29C55.6359 47.37 56.5959 45.45 57.1959 43.53C57.8559 41.55 58.3659 39.39 58.7259 37.05C58.7259 36.75 58.7259 36.15 58.7259 35.25C58.7859 34.35 58.6959 33.48 58.4559 32.64C58.2759 31.8 57.9159 31.14 57.3759 30.66C56.8959 30.12 56.1759 30.06 55.2159 30.48ZM104.151 33.63C104.151 36.09 103.941 38.7 103.521 41.46C103.161 44.22 102.501 46.89 101.541 49.47C100.581 51.99 99.2906 54.3 97.6706 56.4C96.1106 58.44 94.1606 59.97 91.8206 60.99C89.1806 61.89 86.6606 62.22 84.2606 61.98C81.9206 61.74 79.8206 61.02 77.9606 59.82C76.1006 58.62 74.6006 57 73.4606 54.96C72.3806 52.92 71.7806 50.58 71.6606 47.94C71.3606 41.76 72.0806 36.48 73.8206 32.1C75.6206 27.72 78.2906 24.21 81.8306 21.57C84.1706 19.95 86.6306 19.02 89.2106 18.78C91.7906 18.54 94.1606 18.96 96.3206 20.04C98.5406 21.12 100.371 22.83 101.811 25.17C103.311 27.45 104.091 30.27 104.151 33.63ZM90.0206 30.48C88.7606 31.02 87.6806 31.98 86.7806 33.36C85.9406 34.74 85.2506 36.24 84.7106 37.86C84.1706 39.48 83.7806 41.13 83.5406 42.81C83.3006 44.43 83.2106 45.78 83.2706 46.86C83.2706 48.18 83.5106 49.17 83.9906 49.83C84.4706 50.49 85.0106 50.88 85.6106 51C86.2706 51.12 86.9306 51.03 87.5906 50.73C88.2506 50.37 88.7606 49.89 89.1206 49.29C90.4406 47.37 91.4006 45.45 92.0006 43.53C92.6606 41.55 93.1706 39.39 93.5306 37.05C93.5306 36.75 93.5306 36.15 93.5306 35.25C93.5906 34.35 93.5006 33.48 93.2606 32.64C93.0806 31.8 92.7206 31.14 92.1806 30.66C91.7006 30.12 90.9806 30.06 90.0206 30.48ZM127.714 52.17C126.994 53.73 126.034 55.23 124.834 56.67C123.634 58.05 122.104 58.98 120.244 59.46C118.564 60.18 116.974 60.3 115.474 59.82C114.034 59.34 112.744 58.53 111.604 57.39C110.464 56.25 109.504 54.93 108.724 53.43C107.944 51.87 107.404 50.43 107.104 49.11C106.744 46.71 106.654 44.28 106.834 41.82C107.074 39.36 107.554 37.02 108.274 34.8C109.054 32.52 110.074 30.36 111.334 28.32C112.654 26.28 114.214 24.45 116.014 22.83C118.414 20.73 120.934 19.35 123.574 18.69C126.214 18.03 128.914 18.39 131.674 19.77C132.274 18.15 132.814 16.41 133.294 14.55C133.774 12.63 134.284 10.83 134.824 9.15C135.364 7.41 135.994 5.88 136.714 4.55999C137.434 3.24 138.334 2.31 139.414 1.77C140.434 0.989998 141.724 0.749997 143.284 1.05C144.604 1.41 145.624 2.01 146.344 2.85C147.064 3.63 147.514 4.53 147.694 5.55C147.934 6.57 147.934 7.65 147.694 8.79C147.514 9.93 147.154 10.98 146.614 11.94C143.914 18.84 141.844 25.92 140.404 33.18C139.024 40.38 138.184 48.15 137.884 56.49C137.884 56.79 137.854 57.09 137.794 57.39C137.734 57.63 137.704 57.9 137.704 58.2C137.404 58.92 137.014 59.52 136.534 60C136.114 60.54 135.454 60.78 134.554 60.72C133.354 60.66 132.334 60.36 131.494 59.82C130.714 59.22 130.054 58.53 129.514 57.75C128.974 56.91 128.554 56.01 128.254 55.05C128.014 54.03 127.834 53.07 127.714 52.17ZM129.694 29.4C128.074 29.58 126.484 30.15 124.924 31.11C123.364 32.07 121.984 33.27 120.784 34.71C119.584 36.15 118.624 37.74 117.904 39.48C117.244 41.16 116.974 42.81 117.094 44.43C117.094 45.21 117.244 45.87 117.544 46.41C117.844 46.95 118.234 47.31 118.714 47.49C119.254 47.61 119.854 47.52 120.514 47.22C121.174 46.86 121.864 46.23 122.584 45.33C123.124 44.79 123.724 44.16 124.384 43.44C125.044 42.66 125.674 41.67 126.274 40.47C126.934 39.21 127.564 37.71 128.164 35.97C128.764 34.17 129.274 31.98 129.694 29.4ZM144.813 45.33C144.813 41.85 144.933 38.61 145.173 35.61C145.413 32.55 146.163 29.61 147.423 26.79C148.143 25.17 149.073 24 150.213 23.28C151.353 22.56 152.493 22.23 153.633 22.29C154.773 22.35 155.853 22.8 156.873 23.64C157.893 24.48 158.673 25.68 159.213 27.24C159.633 28.62 159.813 30.06 159.753 31.56C159.693 33 159.513 34.35 159.213 35.61C158.373 39.33 157.533 43.29 156.693 47.49C155.853 51.63 155.133 55.59 154.533 59.37C154.113 60.39 153.393 60.9 152.373 60.9C151.353 60.9 150.333 60.36 149.313 59.28C148.473 58.44 147.783 57.45 147.243 56.31C146.703 55.17 146.253 53.97 145.893 52.71C145.593 51.45 145.353 50.19 145.173 48.93C145.053 47.67 144.933 46.47 144.813 45.33ZM162.723 13.2C163.083 14.04 163.233 14.91 163.173 15.81C163.173 16.71 162.993 17.52 162.633 18.24C162.333 18.96 161.883 19.59 161.283 20.13C160.743 20.61 160.083 20.88 159.303 20.94C158.463 21 157.623 20.91 156.783 20.67C155.943 20.37 155.133 19.98 154.353 19.5C153.633 19.02 152.973 18.45 152.373 17.79C151.773 17.07 151.323 16.32 151.023 15.54C150.723 14.76 150.603 13.95 150.663 13.11C150.783 12.21 151.053 11.4 151.473 10.68C151.893 9.96 152.433 9.36 153.093 8.88C153.753 8.4 154.503 8.16 155.343 8.16C156.903 8.1 158.403 8.55 159.843 9.51C161.283 10.47 162.243 11.7 162.723 13.2ZM174.164 45.15C174.044 45.99 174.104 46.8 174.344 47.58C174.584 48.36 174.944 49.02 175.424 49.56C175.904 50.1 176.474 50.49 177.134 50.73C177.854 50.91 178.634 50.85 179.474 50.55C181.274 50.01 182.864 49.35 184.244 48.57C185.684 47.73 187.124 46.89 188.564 46.05C189.524 45.39 190.394 45.03 191.174 44.97C192.014 44.85 192.644 44.97 193.064 45.33C193.484 45.69 193.694 46.23 193.694 46.95C193.694 47.67 193.364 48.51 192.704 49.47C191.084 52.23 189.074 54.54 186.674 56.4C184.334 58.26 181.634 59.61 178.574 60.45C175.574 61.23 172.694 60.96 169.934 59.64C167.234 58.32 165.164 56.25 163.724 53.43C162.464 50.37 161.804 47.28 161.744 44.16C161.744 40.98 162.224 37.92 163.184 34.98C164.204 32.04 165.674 29.34 167.594 26.88C169.514 24.42 171.794 22.35 174.434 20.67C175.994 19.71 177.794 19.05 179.834 18.69C181.874 18.33 183.824 18.33 185.684 18.69C188.324 19.17 190.364 20.37 191.804 22.29C193.304 24.15 193.994 26.43 193.874 29.13C193.814 31.41 193.304 33.48 192.344 35.34C191.444 37.14 190.214 38.73 188.654 40.11C186.554 41.85 184.394 43.26 182.174 44.34C179.954 45.36 177.284 45.63 174.164 45.15ZM184.334 29.31C183.494 28.77 182.564 28.71 181.544 29.13C180.584 29.49 179.654 30.12 178.754 31.02C177.854 31.86 177.074 32.88 176.414 34.08C175.754 35.28 175.364 36.45 175.244 37.59C176.624 37.59 177.944 37.32 179.204 36.78C180.464 36.24 181.514 35.58 182.354 34.8C183.254 33.96 183.884 33.06 184.244 32.1C184.664 31.08 184.694 30.15 184.334 29.31Z" fill="#C72F24"/>
</svg>
